<mxfile host="Electron" modified="2024-04-21T11:46:26.832Z" agent="Mozilla/5.0 (Macintosh; Intel Mac OS X 10_15_7) AppleWebKit/537.36 (KHTML, like Gecko) draw.io/23.1.5 Chrome/120.0.6099.109 Electron/28.1.0 Safari/537.36" etag="DAuAuIYPIYfvo7qQvh9e" version="23.1.5" type="device">
  <diagram name="第 1 页" id="LR617UuicsV6rjrw26W9">
    <mxGraphModel dx="976" dy="813" grid="0" gridSize="10" guides="1" tooltips="1" connect="1" arrows="1" fold="1" page="1" pageScale="1" pageWidth="827" pageHeight="1169" math="0" shadow="0">
      <root>
        <mxCell id="0" />
        <mxCell id="1" parent="0" />
        <mxCell id="7PGsFjAmdX-w_vug71Y6-12" style="rounded=0;orthogonalLoop=1;jettySize=auto;html=1;entryX=0;entryY=0.5;entryDx=0;entryDy=0;" edge="1" parent="1" source="7PGsFjAmdX-w_vug71Y6-1" target="7PGsFjAmdX-w_vug71Y6-8">
          <mxGeometry relative="1" as="geometry" />
        </mxCell>
        <mxCell id="7PGsFjAmdX-w_vug71Y6-1" value="Record(root.sg.d1)" style="rounded=0;whiteSpace=wrap;html=1;fillColor=#dae8fc;strokeColor=#6c8ebf;fontSize=13;" vertex="1" parent="1">
          <mxGeometry x="54" y="134" width="191" height="27" as="geometry" />
        </mxCell>
        <mxCell id="7PGsFjAmdX-w_vug71Y6-14" style="rounded=0;orthogonalLoop=1;jettySize=auto;html=1;entryX=0;entryY=0.5;entryDx=0;entryDy=0;exitX=1;exitY=0.5;exitDx=0;exitDy=0;" edge="1" parent="1" source="7PGsFjAmdX-w_vug71Y6-2" target="7PGsFjAmdX-w_vug71Y6-10">
          <mxGeometry relative="1" as="geometry" />
        </mxCell>
        <mxCell id="7PGsFjAmdX-w_vug71Y6-2" value="Record(root.sg.d2)" style="rounded=0;whiteSpace=wrap;html=1;fillColor=#d5e8d4;strokeColor=#82b366;fontSize=13;" vertex="1" parent="1">
          <mxGeometry x="54" y="173" width="191" height="27" as="geometry" />
        </mxCell>
        <mxCell id="7PGsFjAmdX-w_vug71Y6-16" style="rounded=0;orthogonalLoop=1;jettySize=auto;html=1;entryX=0;entryY=0.5;entryDx=0;entryDy=0;exitX=1;exitY=0.5;exitDx=0;exitDy=0;" edge="1" parent="1" source="7PGsFjAmdX-w_vug71Y6-3" target="7PGsFjAmdX-w_vug71Y6-11">
          <mxGeometry relative="1" as="geometry" />
        </mxCell>
        <mxCell id="7PGsFjAmdX-w_vug71Y6-3" value="Record(root.sg.d3)" style="rounded=0;whiteSpace=wrap;html=1;fillColor=#ffe6cc;strokeColor=#d79b00;fontSize=13;" vertex="1" parent="1">
          <mxGeometry x="54" y="212" width="191" height="27" as="geometry" />
        </mxCell>
        <mxCell id="7PGsFjAmdX-w_vug71Y6-13" style="rounded=0;orthogonalLoop=1;jettySize=auto;html=1;entryX=0;entryY=0.5;entryDx=0;entryDy=0;exitX=1;exitY=0.5;exitDx=0;exitDy=0;" edge="1" parent="1" source="7PGsFjAmdX-w_vug71Y6-4" target="7PGsFjAmdX-w_vug71Y6-8">
          <mxGeometry relative="1" as="geometry" />
        </mxCell>
        <mxCell id="7PGsFjAmdX-w_vug71Y6-4" value="Record(root.sg.d1)" style="rounded=0;whiteSpace=wrap;html=1;fillColor=#dae8fc;strokeColor=#6c8ebf;fontSize=13;" vertex="1" parent="1">
          <mxGeometry x="54" y="251" width="191" height="27" as="geometry" />
        </mxCell>
        <mxCell id="7PGsFjAmdX-w_vug71Y6-15" style="rounded=0;orthogonalLoop=1;jettySize=auto;html=1;entryX=0;entryY=0.5;entryDx=0;entryDy=0;exitX=1;exitY=0.5;exitDx=0;exitDy=0;" edge="1" parent="1" source="7PGsFjAmdX-w_vug71Y6-5" target="7PGsFjAmdX-w_vug71Y6-10">
          <mxGeometry relative="1" as="geometry" />
        </mxCell>
        <mxCell id="7PGsFjAmdX-w_vug71Y6-5" value="Record(root.sg.d2)" style="rounded=0;whiteSpace=wrap;html=1;fillColor=#d5e8d4;strokeColor=#82b366;fontSize=13;" vertex="1" parent="1">
          <mxGeometry x="54" y="290" width="191" height="27" as="geometry" />
        </mxCell>
        <mxCell id="7PGsFjAmdX-w_vug71Y6-17" style="rounded=0;orthogonalLoop=1;jettySize=auto;html=1;entryX=0;entryY=0.5;entryDx=0;entryDy=0;exitX=1;exitY=0.5;exitDx=0;exitDy=0;" edge="1" parent="1" source="7PGsFjAmdX-w_vug71Y6-6" target="7PGsFjAmdX-w_vug71Y6-11">
          <mxGeometry relative="1" as="geometry" />
        </mxCell>
        <mxCell id="7PGsFjAmdX-w_vug71Y6-6" value="Record(root.sg.d3)" style="rounded=0;whiteSpace=wrap;html=1;fillColor=#ffe6cc;strokeColor=#d79b00;fontSize=13;" vertex="1" parent="1">
          <mxGeometry x="54" y="329" width="191" height="27" as="geometry" />
        </mxCell>
        <mxCell id="7PGsFjAmdX-w_vug71Y6-7" value="&lt;font style=&quot;font-size: 14px;&quot;&gt;用户通过 InsertRecords 接口传入的数据&lt;/font&gt;" style="text;html=1;align=center;verticalAlign=middle;whiteSpace=wrap;rounded=0;" vertex="1" parent="1">
          <mxGeometry x="27" y="92" width="254.5" height="30" as="geometry" />
        </mxCell>
        <mxCell id="7PGsFjAmdX-w_vug71Y6-8" value="Tablet (root.sg.d1)" style="swimlane;whiteSpace=wrap;html=1;fillColor=#dae8fc;strokeColor=#6c8ebf;fontSize=13;" vertex="1" parent="1">
          <mxGeometry x="486" y="104" width="200" height="86" as="geometry" />
        </mxCell>
        <mxCell id="7PGsFjAmdX-w_vug71Y6-19" value="Record" style="rounded=0;whiteSpace=wrap;html=1;fillColor=#dae8fc;strokeColor=#6c8ebf;fontSize=13;" vertex="1" parent="7PGsFjAmdX-w_vug71Y6-8">
          <mxGeometry x="4.5" y="27" width="191" height="27" as="geometry" />
        </mxCell>
        <mxCell id="7PGsFjAmdX-w_vug71Y6-20" value="Record" style="rounded=0;whiteSpace=wrap;html=1;fillColor=#dae8fc;strokeColor=#6c8ebf;fontSize=13;" vertex="1" parent="7PGsFjAmdX-w_vug71Y6-8">
          <mxGeometry x="4.5" y="54" width="191" height="27" as="geometry" />
        </mxCell>
        <mxCell id="7PGsFjAmdX-w_vug71Y6-10" value="Tablet (root.sg.d2)" style="swimlane;whiteSpace=wrap;html=1;fillColor=#d5e8d4;strokeColor=#82b366;fontSize=13;" vertex="1" parent="1">
          <mxGeometry x="486" y="194" width="200" height="86" as="geometry" />
        </mxCell>
        <mxCell id="7PGsFjAmdX-w_vug71Y6-21" value="Record" style="rounded=0;whiteSpace=wrap;html=1;fillColor=#d5e8d4;strokeColor=#82b366;fontSize=13;" vertex="1" parent="7PGsFjAmdX-w_vug71Y6-10">
          <mxGeometry x="4.5" y="26" width="191" height="27" as="geometry" />
        </mxCell>
        <mxCell id="7PGsFjAmdX-w_vug71Y6-22" value="Record" style="rounded=0;whiteSpace=wrap;html=1;fillColor=#d5e8d4;strokeColor=#82b366;fontSize=13;" vertex="1" parent="7PGsFjAmdX-w_vug71Y6-10">
          <mxGeometry x="4.5" y="53" width="191" height="27" as="geometry" />
        </mxCell>
        <mxCell id="7PGsFjAmdX-w_vug71Y6-11" value="Tablet (root.sg.d3)" style="swimlane;whiteSpace=wrap;html=1;fillColor=#ffe6cc;strokeColor=#d79b00;fontSize=13;" vertex="1" parent="1">
          <mxGeometry x="487" y="284" width="200" height="86" as="geometry" />
        </mxCell>
        <mxCell id="7PGsFjAmdX-w_vug71Y6-23" value="Record" style="rounded=0;whiteSpace=wrap;html=1;fillColor=#ffe6cc;strokeColor=#d79b00;fontSize=13;" vertex="1" parent="7PGsFjAmdX-w_vug71Y6-11">
          <mxGeometry x="6.5" y="26" width="191" height="27" as="geometry" />
        </mxCell>
        <mxCell id="7PGsFjAmdX-w_vug71Y6-24" value="Record" style="rounded=0;whiteSpace=wrap;html=1;fillColor=#ffe6cc;strokeColor=#d79b00;fontSize=13;" vertex="1" parent="7PGsFjAmdX-w_vug71Y6-11">
          <mxGeometry x="6.5" y="53" width="191" height="27" as="geometry" />
        </mxCell>
        <mxCell id="7PGsFjAmdX-w_vug71Y6-18" value="&lt;font style=&quot;font-size: 14px;&quot;&gt;按设备分配到不同的 Tablet 中&lt;/font&gt;" style="text;html=1;align=center;verticalAlign=middle;whiteSpace=wrap;rounded=0;" vertex="1" parent="1">
          <mxGeometry x="468" y="70" width="226" height="30" as="geometry" />
        </mxCell>
        <mxCell id="7PGsFjAmdX-w_vug71Y6-26" value="&lt;font style=&quot;font-size: 19px;&quot;&gt;IoTDB&lt;/font&gt;" style="shape=cylinder3;whiteSpace=wrap;html=1;boundedLbl=1;backgroundOutline=1;size=15;fillColor=#f5f5f5;fontColor=#333333;strokeColor=#666666;" vertex="1" parent="1">
          <mxGeometry x="883" y="158.5" width="129" height="157" as="geometry" />
        </mxCell>
        <mxCell id="7PGsFjAmdX-w_vug71Y6-27" value="" style="shape=flexArrow;endArrow=classic;html=1;rounded=0;" edge="1" parent="1">
          <mxGeometry width="50" height="50" relative="1" as="geometry">
            <mxPoint x="760" y="237" as="sourcePoint" />
            <mxPoint x="831" y="237" as="targetPoint" />
          </mxGeometry>
        </mxCell>
        <mxCell id="7PGsFjAmdX-w_vug71Y6-28" value="InsertTablets 写入" style="text;html=1;align=center;verticalAlign=middle;resizable=0;points=[];autosize=1;strokeColor=none;fillColor=none;fontSize=14;" vertex="1" parent="1">
          <mxGeometry x="731" y="189" width="129" height="29" as="geometry" />
        </mxCell>
        <mxCell id="7PGsFjAmdX-w_vug71Y6-30" value="Timestamp" style="rounded=1;whiteSpace=wrap;html=1;fillColor=#bac8d3;strokeColor=#23445d;fontSize=13;" vertex="1" parent="1">
          <mxGeometry x="92" y="411" width="72" height="35" as="geometry" />
        </mxCell>
        <mxCell id="7PGsFjAmdX-w_vug71Y6-31" value="DeviceID" style="rounded=1;whiteSpace=wrap;html=1;fillColor=#bac8d3;strokeColor=#23445d;fontSize=13;" vertex="1" parent="1">
          <mxGeometry x="20" y="411" width="72" height="35" as="geometry" />
        </mxCell>
        <mxCell id="7PGsFjAmdX-w_vug71Y6-32" value="DataTypes" style="rounded=1;whiteSpace=wrap;html=1;fillColor=#bac8d3;strokeColor=#23445d;fontSize=13;" vertex="1" parent="1">
          <mxGeometry x="164" y="411" width="123" height="35" as="geometry" />
        </mxCell>
        <mxCell id="7PGsFjAmdX-w_vug71Y6-33" value="Values" style="rounded=1;whiteSpace=wrap;html=1;fillColor=#bac8d3;strokeColor=#23445d;fontSize=13;" vertex="1" parent="1">
          <mxGeometry x="287" y="411" width="123" height="35" as="geometry" />
        </mxCell>
        <mxCell id="7PGsFjAmdX-w_vug71Y6-34" value="" style="endArrow=none;html=1;rounded=0;exitX=0;exitY=1;exitDx=0;exitDy=0;entryX=0;entryY=0;entryDx=0;entryDy=0;dashed=1;endFill=0;fontSize=13;" edge="1" parent="1" source="7PGsFjAmdX-w_vug71Y6-6" target="7PGsFjAmdX-w_vug71Y6-31">
          <mxGeometry width="50" height="50" relative="1" as="geometry">
            <mxPoint x="410" y="356" as="sourcePoint" />
            <mxPoint x="460" y="306" as="targetPoint" />
          </mxGeometry>
        </mxCell>
        <mxCell id="7PGsFjAmdX-w_vug71Y6-35" value="" style="endArrow=none;html=1;rounded=0;exitX=1;exitY=1;exitDx=0;exitDy=0;entryX=1;entryY=0;entryDx=0;entryDy=0;dashed=1;endFill=0;fontSize=13;" edge="1" parent="1" source="7PGsFjAmdX-w_vug71Y6-6" target="7PGsFjAmdX-w_vug71Y6-33">
          <mxGeometry width="50" height="50" relative="1" as="geometry">
            <mxPoint x="64" y="366" as="sourcePoint" />
            <mxPoint x="30" y="436" as="targetPoint" />
          </mxGeometry>
        </mxCell>
        <mxCell id="7PGsFjAmdX-w_vug71Y6-36" value="每行 Record 的结构" style="text;html=1;align=center;verticalAlign=middle;resizable=0;points=[];autosize=1;strokeColor=none;fillColor=none;fontSize=14;" vertex="1" parent="1">
          <mxGeometry x="114" y="387" width="141" height="29" as="geometry" />
        </mxCell>
      </root>
    </mxGraphModel>
  </diagram>
</mxfile>
